<svg xmlns="http://www.w3.org/2000/svg" xmlns:xlink="http://www.w3.org/1999/xlink" width="1920" zoomAndPan="magnify" viewBox="0 0 1440 809.999993" height="1080" preserveAspectRatio="xMidYMid meet" version="1.0"><defs><g/></defs><rect x="-144" width="1728" fill="#ffffff" y="-80.999999" height="971.999992" fill-opacity="1"/><rect x="-144" width="1728" fill="#001a39" y="-80.999999" height="971.999992" fill-opacity="1"/><g fill="#ffffff" fill-opacity="1"><g transform="translate(54.071459, 591.408834)"><g><path d="M 250.191406 -302.347656 L 201.4375 -302.347656 C 198.792969 -302.347656 196.902344 -300.457031 196.902344 -298.945312 L 196.902344 -102.042969 L 57.445312 -301.210938 C 57.066406 -301.96875 54.800781 -302.347656 54.042969 -302.347656 L 3.78125 -302.347656 C 1.890625 -302.347656 0 -300.457031 0 -298.945312 L 0 -72.5625 L 57.824219 -72.5625 L 57.824219 -200.304688 L 196.902344 -1.132812 C 197.28125 -0.378906 199.546875 0 200.304688 0 L 250.191406 0 C 252.835938 0 254.347656 -1.890625 254.347656 -3.402344 L 254.347656 -298.945312 C 254.347656 -300.457031 252.835938 -302.347656 250.191406 -302.347656 Z M 250.191406 -302.347656 "/></g></g></g><g fill="#ffffff" fill-opacity="1"><g transform="translate(321.261685, 591.408834)"><g><path d="M 123.207031 -51.777344 L 92.972656 -51.777344 L 92.972656 -302.347656 L 35.148438 -302.347656 L 35.148438 -51.777344 L 4.15625 -51.777344 C 1.890625 -51.777344 0 -50.265625 0 -48.375 L 0 -3.402344 C 0 -1.890625 1.890625 0 4.15625 0 L 123.207031 0 C 125.851562 0 127.363281 -1.890625 127.363281 -3.402344 L 127.363281 -48.375 C 127.363281 -50.265625 125.851562 -51.777344 123.207031 -51.777344 Z M 123.207031 -51.777344 "/></g></g></g><g fill="#ffffff" fill-opacity="1"><g transform="translate(455.045771, 591.408834)"><g><path d="M 172.714844 -55.554688 C 136.054688 -54.042969 58.203125 -57.824219 58.203125 -151.171875 C 58.203125 -222.980469 106.953125 -250.570312 172.714844 -247.167969 L 172.714844 -180.273438 L 230.539062 -180.273438 L 230.539062 -298.945312 C 230.539062 -300.457031 229.027344 -302.347656 226.382812 -302.347656 L 177.25 -302.347656 C 103.175781 -302.347656 0 -285.339844 0 -151.171875 C 0 -21.921875 102.042969 0 177.25 0 L 226.382812 0 C 229.027344 0 230.539062 -1.890625 230.539062 -3.402344 L 230.539062 -55.554688 Z M 172.714844 -55.554688 "/></g></g></g><g fill="#ffffff" fill-opacity="1"><g transform="translate(697.293193, 591.408834)"><g><path d="M 237.339844 -4.535156 L 122.449219 -300.078125 C 121.316406 -303.101562 116.023438 -303.101562 114.890625 -300.078125 L 0.378906 -4.535156 C -0.757812 -2.269531 0.757812 0 4.15625 0 L 55.933594 0 C 57.445312 0 59.335938 -0.757812 59.714844 -2.269531 L 118.671875 -170.824219 L 178.382812 -2.269531 C 178.761719 -0.757812 180.652344 0 181.785156 0 L 233.941406 0 C 236.585938 0 238.476562 -2.269531 237.339844 -4.535156 Z M 237.339844 -4.535156 "/></g></g></g><g fill="#ffffff" fill-opacity="1"><g transform="translate(946.721176, 591.408834)"><g><path d="M 138.703125 -167.800781 C 117.160156 -178.007812 95.996094 -178.007812 94.105469 -178.007812 C 74.832031 -178.007812 56.3125 -189.34375 56.3125 -211.265625 C 56.3125 -235.453125 73.320312 -247.921875 94.105469 -247.921875 C 113.757812 -247.921875 130.386719 -237.71875 131.140625 -216.175781 C 131.140625 -215.042969 133.03125 -213.152344 135.300781 -213.152344 L 182.542969 -213.152344 C 185.1875 -213.152344 187.078125 -215.042969 186.699219 -216.175781 C 185.941406 -267.574219 145.882812 -302.347656 94.105469 -302.347656 C 45.730469 -302.347656 0 -267.953125 0 -211.265625 C 0 -176.117188 17.761719 -149.285156 49.132812 -134.921875 C 71.050781 -124.71875 91.460938 -124.71875 94.105469 -124.71875 C 111.113281 -123.960938 131.898438 -110.355469 131.898438 -88.058594 C 131.898438 -68.027344 114.136719 -54.421875 94.105469 -54.421875 C 94.105469 -54.421875 94.105469 -54.421875 93.726562 -54.421875 L 93.726562 0 C 94.105469 0 94.105469 0 94.105469 0 C 142.480469 0 187.832031 -31.367188 187.832031 -88.058594 C 187.832031 -123.582031 170.449219 -153.0625 138.703125 -167.800781 Z M 138.703125 -167.800781 "/></g></g></g><g fill="#ffffff" fill-opacity="1"><g transform="translate(1143.995999, 591.408834)"><g><path d="M 57.824219 -171.203125 L 57.824219 -298.945312 C 57.824219 -300.457031 56.3125 -302.347656 53.667969 -302.347656 L 4.15625 -302.347656 C 1.890625 -302.347656 0 -300.457031 0 -298.945312 L 0 -171.203125 Z M 226.003906 -302.347656 L 176.496094 -302.347656 C 174.226562 -302.347656 172.335938 -300.457031 172.335938 -298.945312 L 172.335938 -113 L 57.824219 -113 L 57.824219 -113.378906 L 0 -113.378906 L 0 -3.402344 C 0 -1.890625 1.890625 0 4.15625 0 L 53.667969 0 C 56.3125 0 57.824219 -1.890625 57.824219 -3.402344 L 57.824219 -56.691406 L 172.335938 -56.691406 L 172.335938 -3.402344 C 172.335938 -1.890625 174.226562 0 176.496094 0 L 226.003906 0 C 228.648438 0 230.160156 -1.890625 230.160156 -3.402344 L 230.160156 -298.945312 C 230.160156 -300.457031 228.648438 -302.347656 226.003906 -302.347656 Z M 226.003906 -302.347656 "/></g></g></g></svg>